Coordinates
version=1
nRows=15
nColumns=34
inDegrees=yes

Units are S.I. units (second, meters, Newtons, ...)
If the header above contains a line with 'inDegrees', this indicates whether rotational values are in degrees (yes) or radians (no).

endheader
time	pelvis_tilt	pelvis_list	pelvis_rotation	pelvis_tx	pelvis_ty	pelvis_tz	hip_flexion_r	hip_adduction_r	hip_rotation_r	knee_angle_r	ankle_angle_r	subtalar_angle_r	mtp_angle_r	hip_flexion_l	hip_adduction_l	hip_rotation_l	knee_angle_l	ankle_angle_l	subtalar_angle_l	mtp_angle_l	lumbar_extension	lumbar_bending	lumbar_rotation	arm_flex_r	arm_add_r	arm_rot_r	elbow_flex_r	pro_sup_r	arm_flex_l	arm_add_l	arm_rot_l	elbow_flex_l	pro_sup_l
      0.00000000	      1.12181015	     -3.97164377	     -1.42396574	      0.32889410	      1.01015706	     -0.07316819	     34.18076613	      6.75875141	     -3.65584961	      1.97279745	      1.49326360	     -3.70550244	      0.00000000	      4.22647678	      2.82402984	     -1.69857614	      7.32566170	     19.19173215	     -6.05080726	      0.00000000	     -6.72510227	     -3.37403213	     -4.25284979	     48.37109009	     21.51995739	     61.76098950	    122.12463538	    119.74797596	     29.09058612	     16.53339133	     14.06275187	    129.06769979	     96.67849843
      0.01666670	     -0.48791252	     -2.22465137	     -1.34958405	      0.33338343	      1.00079780	     -0.07183283	     35.17184104	      4.45915235	     -2.02129063	      0.00000000	      3.57930383	      1.60989664	      0.00000000	      4.70780017	      4.64425769	      1.28287774	      5.91204551	     20.67165691	     -8.41036751	      0.00000000	     -3.97603201	     -5.71757327	     -2.54033402	     50.78274131	     21.52900148	     61.27161186	    123.25679976	    117.61499992	     29.79894695	     19.39675907	     14.99935149	    125.79898629	     99.53878340
      0.03333330	     -1.04834931	     -2.20090112	     -2.37839392	      0.33615783	      1.00196716	     -0.06965745	     34.93062680	      4.96251640	     -2.13956335	      0.00000000	      3.16150254	      2.40845895	      0.00000000	      4.71777320	      4.50793370	     -1.12870259	      4.88241813	     15.98922300	    -12.74871248	      0.00000000	     -2.73611879	     -5.83904910	     -0.99087064	     50.92314464	     21.98683107	     61.97479008	    123.46412556	    116.96800743	     29.62434572	     20.55676944	     14.70434753	    124.04321564	    100.82416868
      0.05000000	     -0.95982619	     -2.65243038	     -2.39485808	      0.33562233	      0.99912998	     -0.07013697	     34.99940682	      5.40422922	     -2.85055101	      0.00000000	      2.54476301	      3.52762014	      0.00000000	      3.94613187	      4.17524801	     -1.65950558	      3.48275837	     14.12775308	    -12.31001784	      0.00000000	     -2.47129775	     -5.38927132	     -1.59291588	     51.32646778	     22.20772934	     62.07709240	    123.26752658	    116.83153469	     30.20374962	     20.66603822	     15.96385378	    124.77233294	    101.13037278
      0.06666670	      0.00145193	     -3.86385848	     -2.26988333	      0.33829208	      1.00067775	     -0.07013301	     33.77765325	      6.42608373	     -3.23390012	      0.00000000	      2.57888085	      3.64093338	      0.00000000	      2.30655850	      2.86095782	     -2.47188362	      2.38244965	     11.74687107	    -13.48250499	      0.00000000	     -3.33648670	     -3.52256282	     -1.81426162	     51.98418105	     22.26612839	     62.60906031	    122.08681218	    116.74227453	     30.60138276	     20.41019917	     16.33923901	    125.22041760	    101.26416937
      0.08333330	      0.43995666	     -4.79387682	     -2.24604918	      0.33857187	      0.99967312	     -0.07128899	     32.99185459	      7.24501252	     -3.30435168	      0.00000000	      2.19270335	      3.09623085	      0.00000000	      1.73164450	      1.89477428	     -2.98365474	      1.96851249	      9.60626801	    -14.30446439	      0.00000000	     -3.88258069	     -2.15945865	     -2.59342945	     52.46342389	     22.25184659	     63.49027777	    121.75541881	    116.74490030	     30.64419491	     20.13919346	     17.62619745	    128.18958224	    101.16270312
      0.10000000	      0.99680873	     -5.57770688	     -2.17221173	      0.33951830	      1.00002003	     -0.07177100	     32.41043640	      7.84884716	     -2.98511885	      0.00000000	      1.45992566	      2.45055802	      0.00000000	      1.58456831	      0.95672578	     -1.80953012	      2.52522769	     10.12227367	    -13.82977281	      0.00000000	     -4.53626440	     -0.92063164	     -2.88924144	     53.02249067	     22.03952536	     63.82619163	    121.00222892	    116.79807583	     30.91250789	     20.10845202	     19.72570905	    131.96993914	    101.03547119
      0.11666670	      1.28484075	     -5.91167513	     -2.50278322	      0.34155620	      1.00030961	     -0.07145761	     31.91361004	      8.33832617	     -2.24076265	      0.00000000	      0.66915685	      1.42920398	      0.00000000	      1.42283684	      0.49757230	     -1.86021625	      2.47231793	      9.04115573	    -13.82243228	      0.00000000	     -5.05492814	     -0.33317970	     -3.34423337	     53.53611158	     22.33850927	     64.70020138	    120.77936360	    116.94285932	     31.34824248	     19.59183001	     22.53354699	    136.66146131	    100.92308841
      0.13333330	      1.60148181	     -6.17967696	     -2.44663849	      0.34080557	      1.00175161	     -0.07172620	     31.40485003	      8.63844204	     -2.02583944	      0.00000000	     -0.09183908	      0.57224529	      0.00000000	      1.23335822	      0.15770088	     -1.57862429	      3.03880279	      8.19933097	    -14.32346578	      0.00000000	     -5.42134167	      0.21355388	     -3.70777830	     54.11585789	     22.13936992	     64.82547639	    120.07845414	    117.11227738	     31.84489505	     19.28339078	     24.46019982	    139.69264846	    100.84980786
      0.15000000	      2.04168955	     -6.40300013	     -2.43274556	      0.34092168	      1.00246635	     -0.07162085	     30.78254798	      8.85947677	     -1.78090752	      0.00000000	     -0.78193168	     -0.43318024	      0.00000000	      0.83339714	     -0.09691365	     -1.71083093	      3.30788491	      6.13467053	    -16.00774402	      0.00000000	     -6.00895011	      0.50672771	     -4.33354246	     54.63895809	     22.17998834	     65.18984686	    119.62083614	    117.45300189	     32.36790676	     18.78522172	     26.26088746	    142.68967023	    100.75885065
      0.16666670	      2.15692431	     -6.45445050	     -2.34930923	      0.34137740	      1.00325009	     -0.07140435	     30.65165878	      8.93333372	     -2.23248074	      0.00000000	     -1.61676306	     -0.44145333	      0.00000000	      0.78493473	     -0.23897512	     -2.89980043	      3.91670734	      4.54449003	    -16.08163239	      0.00000000	     -5.97926475	      0.43860444	     -4.57288836	     54.58163961	     21.58789265	     65.01663050	    119.37586326	    117.48306836	     32.46891594	     18.73146134	     26.35922683	    143.01860833	    100.74965664
      0.18333330	      2.54637824	     -6.41250145	     -2.71602736	      0.34263825	      1.00446929	     -0.07121916	     30.16820363	      9.08531956	     -1.89049606	      0.00000000	     -1.69267815	     -0.44733164	      0.00000000	     -0.13591870	     -0.09149400	     -2.70815877	      3.28699782	      1.90800137	    -18.11963811	      0.00000000	     -6.39798935	      0.61574351	     -4.73659333	     54.68608751	     22.01716925	     64.70889659	    118.84314914	    117.73251880	     32.74063417	     18.38290919	     26.13568888	    143.13008266	    100.60057939
      0.20000000	      2.69413437	     -6.46101729	     -3.06425614	      0.34387049	      1.00402644	     -0.07153103	     30.03872924	      9.21896259	     -2.35428974	      0.00000000	     -2.30006455	     -0.41345406	      0.00000000	     -0.58290199	     -0.09407373	     -3.62741561	      3.25041222	     -2.19305028	    -20.35351547	      0.00000000	     -6.47590094	      0.77579436	     -4.69499198	     54.96510183	     22.01420335	     64.69836255	    118.67008878	    117.99031016	     32.53549642	     18.29644460	     24.46363427	    142.52122361	    100.21184994
      0.21666670	      2.76426677	     -6.25483565	     -3.17896651	      0.34524061	      1.00325358	     -0.07119298	     30.03076412	      9.04882039	     -2.37654152	      0.00000000	     -1.88047539	      0.13054188	      0.00000000	     -0.81902946	      0.19110680	     -3.03311556	      3.43633733	     -1.16632663	    -20.45213043	      0.00000000	     -6.24191013	      0.47866039	     -5.03814512	     54.89308693	     22.29117858	     64.82119934	    118.81657953	    118.07464158	     32.12804050	     18.06789980	     23.38044273	    141.46637070	     99.92112616
      0.23333330	      3.13372880	     -6.36202208	     -3.46561952	      0.34480711	      1.00455770	     -0.07090905	     29.15676462	      9.31181048	     -2.29761645	      0.00000000	     -2.30584870	      0.14634675	      0.00000000	     -1.46821543	      0.07835973	     -3.29552982	      3.18342918	     -2.19331590	    -20.00230979	      0.00000000	     -6.30639101	      0.50462720	     -5.12562949	     54.98584917	     22.35974447	     64.89725616	    118.54754859	    118.12596487	     31.69164673	     18.15042078	     21.81744085	    140.24854618	     99.54138256
